<svg width="32" height="32" viewBox="0 0 32 32" fill="none" xmlns="http://www.w3.org/2000/svg">
<path d="M16 32C24.8366 32 32 24.8366 32 16C32 7.16344 24.8366 0 16 0C7.16344 0 0 7.16344 0 16C0 24.8366 7.16344 32 16 32Z" fill="#F7931A"/>
<path d="M15.6712 25.7778L13.9329 25.3552L14.6456 22.5837C14.1296 22.4588 13.6744 22.3436 13.2561 22.2339L12.5336 25.0173L10.7954 24.5947L11.5167 21.7798L11.0691 21.6711C10.8073 21.6048 10.5411 21.5375 10.2739 21.4723L8 20.9193L8.86914 18.979C8.87891 18.979 10.0642 19.2875 10.1337 19.2875C10.2025 19.3032 10.2728 19.3116 10.3434 19.3125C10.4743 19.3106 10.6014 19.2686 10.7075 19.192C10.8136 19.1154 10.8936 19.008 10.9366 18.8845L12.0741 14.4421L12.2577 14.4855C12.1998 14.4636 12.1407 14.4451 12.0806 14.4301L12.8889 11.2589C12.9107 11.0208 12.8375 10.7837 12.6853 10.5993C12.5331 10.415 12.3142 10.2982 12.0762 10.2746C12.0686 10.2539 11.2766 10.0725 10.8095 9.9682L11.2734 8.15823L13.6798 8.74164V8.75033C14.0361 8.83615 14.3947 8.91655 14.7934 9.00455L15.5072 6.22223L17.2454 6.64485L16.5512 9.37285L16.7087 9.40761C17.1161 9.49887 17.5366 9.59339 17.9473 9.69225L18.6469 6.98272L20.3917 7.40534L19.6725 10.1877C22.3299 11.0774 23.4424 12.316 23.1697 14.0836C23.1242 14.6857 22.8812 15.256 22.4786 15.7061C22.0759 16.1561 21.5359 16.4607 20.9425 16.5726C21.335 16.7151 21.6925 16.9398 21.9912 17.2316C22.2898 17.5234 22.5227 17.8756 22.6743 18.2647C22.8259 18.6538 22.8927 19.0707 22.8702 19.4877C22.8477 19.9046 22.7365 20.312 22.5439 20.6825C22.292 21.4875 21.7682 22.1799 21.0621 22.6413C20.3559 23.1027 19.5114 23.3043 18.673 23.2117C17.9067 23.1992 17.1432 23.1177 16.3915 22.9683L15.6712 25.7778ZM14.7727 16.4639L13.8145 20.1936L14.1404 20.2772C15.0821 20.5511 16.0529 20.7123 17.0325 20.7574C18.2449 20.7574 18.9663 20.3392 19.1782 19.5135C19.2358 19.3157 19.2513 19.1081 19.2238 18.9039C19.1963 18.6998 19.1264 18.5037 19.0185 18.3282C18.3536 17.2494 16.3024 16.8018 15.1954 16.5606C15.0346 16.5237 14.8912 16.4922 14.7727 16.4639ZM16.0764 11.374L15.2073 14.7571L15.4909 14.8288C16.2472 15.0521 17.028 15.182 17.8158 15.2156C18.8805 15.2156 19.5215 14.8245 19.7192 14.0542C19.7748 13.8668 19.7905 13.6699 19.7654 13.4761C19.7404 13.2822 19.675 13.0958 19.5736 12.9287C19.0033 12.0063 17.3323 11.6467 16.435 11.4544C16.2992 11.4229 16.1786 11.3968 16.0797 11.3729L16.0764 11.374Z" fill="white"/>
</svg>
