<svg width="32" height="32" viewBox="0 0 32 32" fill="none" xmlns="http://www.w3.org/2000/svg">
<path d="M16 32C24.8366 32 32 24.8366 32 16C32 7.16344 24.8366 0 16 0C7.16344 0 0 7.16344 0 16C0 24.8366 7.16344 32 16 32Z" fill="#ECEFF0"/>
<path d="M16.0002 1.63261L7.23828 16.1632L16.0002 21.3877V1.63261Z" fill="#838485"/>
<path d="M16 1.63242L24.7619 16.163L16 21.3875V1.63242Z" fill="#2F3031"/>
<path d="M7.23828 16.1631L16.0002 12.6257V21.3876L7.23828 16.1631Z" fill="#333534"/>
<path d="M16 21.3876L24.7619 16.1631L16 12.6257" fill="#131313"/>
<path d="M7.23828 17.9045L16.0002 30.4215V23.4555L7.23828 17.9045Z" fill="#828385"/>
<path d="M16 30.4215L24.7619 17.9045L16 23.4555V30.4215Z" fill="#2F3031"/>
</svg>
