<svg width="32" height="32" viewBox="0 0 32 32" fill="none" xmlns="http://www.w3.org/2000/svg">
<path d="M16 32C24.8366 32 32 24.8366 32 16C32 7.16344 24.8366 0 16 0C7.16344 0 0 7.16344 0 16C0 24.8366 7.16344 32 16 32Z" fill="#8247E5"/>
<g clip-path="url(#clip0_4148_4955)">
<path d="M21.0293 12.5445C20.672 12.3337 20.2123 12.3337 19.8038 12.5445L16.9446 14.2856L15.0045 15.3931L12.1961 17.1354C11.8388 17.3463 11.3791 17.3463 10.9706 17.1354L8.77601 15.7638C8.58937 15.6502 8.43466 15.4883 8.32716 15.294C8.21966 15.0997 8.16309 14.8798 8.16305 14.656V12.017C8.16305 11.595 8.3675 11.1729 8.77601 10.9092L10.9706 9.59049C11.3279 9.37926 11.7876 9.37926 12.1961 9.59049L14.3908 10.9621C14.5774 11.0756 14.7322 11.2376 14.8397 11.4319C14.9472 11.6262 15.0037 11.8461 15.0037 12.0699V13.8107L16.9438 12.6499V10.8567C16.9438 10.4346 16.7398 10.0125 16.3313 9.74881L12.247 7.27016C11.8897 7.05893 11.4303 7.05893 11.0218 7.27016L6.83473 9.80132C6.42623 10.0125 6.22217 10.4346 6.22217 10.8567V15.8152C6.22217 16.2372 6.42623 16.6581 6.83473 16.923L10.9706 19.4029C11.3279 19.6141 11.7876 19.6141 12.1961 19.4029L15.0045 17.7146L16.9446 16.5543L19.7529 14.866C20.1102 14.6552 20.5699 14.6552 20.9784 14.866L23.1731 16.1851C23.36 16.2988 23.515 16.4609 23.6226 16.6555C23.7302 16.8501 23.7866 17.0704 23.7864 17.2946V19.9319C23.7864 20.354 23.5823 20.776 23.1738 21.0398L21.0293 22.3589C20.672 22.5697 20.2123 22.5697 19.8038 22.3589L17.6091 21.0398C17.4225 20.9262 17.2679 20.7642 17.1605 20.5699C17.053 20.3756 16.9965 20.1557 16.9966 19.9319V18.2421L15.0553 19.4029V21.1436C15.0553 21.5657 15.2597 21.9877 15.6683 22.2515L19.8038 24.7309C20.1614 24.9421 20.6208 24.9421 21.0293 24.7309L25.1652 22.2511C25.3517 22.1374 25.5064 21.9755 25.6138 21.7812C25.7213 21.5869 25.7778 21.367 25.7777 21.1432V16.131C25.7777 15.7089 25.5737 15.2869 25.1652 15.0232L21.0293 12.5445Z" fill="white"/>
</g>
<defs>
<clipPath id="clip0_4148_4955">
<rect width="19.5556" height="17.7778" fill="white" transform="translate(6.22217 7.11111)"/>
</clipPath>
</defs>
</svg>
