<svg width="32" height="32" viewBox="0 0 32 32" fill="none" xmlns="http://www.w3.org/2000/svg">
<path d="M16 32C24.8366 32 32 24.8366 32 16C32 7.16344 24.8366 0 16 0C7.16344 0 0 7.16344 0 16C0 24.8366 7.16344 32 16 32Z" fill="black"/>
<path d="M22.3568 24.4706L18.1084 20.064C17.8119 19.7514 17.4548 19.5024 17.0589 19.3323C16.663 19.1621 16.2367 19.0744 15.8058 19.0744C15.3749 19.0744 14.9485 19.1621 14.5527 19.3323C14.1568 19.5024 13.7997 19.7514 13.5032 20.064L9.25473 24.4706H6.58838L12.1696 18.6805C12.638 18.187 13.2019 17.7941 13.827 17.5255C14.4522 17.257 15.1254 17.1185 15.8058 17.1185C16.4862 17.1185 17.1594 17.257 17.7845 17.5255C18.4097 17.7941 18.9736 18.187 19.442 18.6805L25.0232 24.4706H22.3568ZM12.1705 14.2249L6.6232 8.47058H9.28861L13.5032 12.8414C13.7998 13.1539 14.1569 13.4028 14.5528 13.5728C14.9486 13.7429 15.3749 13.8306 15.8058 13.8306C16.2366 13.8306 16.663 13.7429 17.0588 13.5728C17.4547 13.4028 17.8118 13.1539 18.1084 12.8414L22.323 8.47058H24.9893L19.442 14.2249C18.9737 14.7184 18.4098 15.1113 17.7848 15.3798C17.1597 15.6483 16.4866 15.7868 15.8063 15.7868C15.126 15.7868 14.4528 15.6483 13.8277 15.3798C13.2027 15.1113 12.6388 14.7184 12.1705 14.2249Z" fill="white"/>
</svg>
