<svg width="32" height="32" viewBox="0 0 32 32" fill="none" xmlns="http://www.w3.org/2000/svg">
<g clip-path="url(#clip0_4148_4994)">
<mask id="mask0_4148_4994" style="mask-type:alpha" maskUnits="userSpaceOnUse" x="0" y="0" width="32" height="32">
<path d="M0 6.10352e-05H32V32H0V6.10352e-05Z" fill="white"/>
</mask>
<g mask="url(#mask0_4148_4994)">
<path fill-rule="evenodd" clip-rule="evenodd" d="M16 6.10352e-05C24.8367 6.10352e-05 32 7.16333 32 16.0001C32 24.8361 24.8367 32.0001 16 32.0001C7.16327 32.0001 0 24.8361 0 16.0001C0 7.16333 7.16327 6.10352e-05 16 6.10352e-05Z" fill="#2775CA"/>
</g>
<path fill-rule="evenodd" clip-rule="evenodd" d="M13.0009 27.1243C13.0009 27.5007 12.7062 27.7145 12.3422 27.6009C7.50453 26.0576 3.99707 21.5214 3.99707 16.1691C3.99707 10.8169 7.50453 6.28052 12.3422 4.73725C12.7062 4.62434 13.0009 4.83743 13.0009 5.2138V6.14289C13.0009 6.39343 12.8067 6.68834 12.568 6.76998C8.74053 8.17543 5.99871 11.8523 5.99871 16.1627C5.99871 20.4731 8.74053 24.1507 12.568 25.5554C12.8067 25.6434 13.0009 25.9318 13.0009 26.1832V27.1243Z" fill="white"/>
<path fill-rule="evenodd" clip-rule="evenodd" d="M16.9974 23.667C16.9974 23.9433 16.7716 24.1691 16.4956 24.1691H15.4978C15.2218 24.1691 14.996 23.9433 14.996 23.667V22.0861C12.8123 21.7913 11.746 20.5675 11.4573 18.905C11.4069 18.6222 11.6327 18.3651 11.9214 18.3651H13.0634C13.3018 18.3651 13.5027 18.5348 13.5529 18.7728C13.7663 19.7642 14.3373 20.5235 16.0876 20.5235C17.3802 20.5235 18.2965 19.8019 18.2965 18.7231C18.2965 17.6435 17.7567 17.2359 15.8618 16.9219C13.0634 16.5455 11.7396 15.6982 11.7396 13.5022C11.7396 11.8082 13.0198 10.4908 15.0023 10.2082V8.65842C15.0023 8.38223 15.2283 8.15623 15.5042 8.15623H16.502C16.778 8.15623 17.0038 8.38223 17.0038 8.65842V10.2522C18.6163 10.5413 19.6391 11.4568 19.9718 12.9751C20.0343 13.2642 19.8085 13.5335 19.5138 13.5335H18.4594C18.2336 13.5335 18.0454 13.3828 17.9765 13.1633C17.6942 12.1975 17.0038 11.7835 15.8053 11.7835C14.4814 11.7835 13.7974 12.4233 13.7974 13.3204C13.7974 14.2679 14.1867 14.7444 16.2198 15.0399C18.9676 15.4162 20.386 16.2004 20.386 18.5413C20.386 20.3168 19.0682 21.7537 17.0038 22.0861V23.667H16.9974Z" fill="white"/>
<path fill-rule="evenodd" clip-rule="evenodd" d="M19.6582 27.6009C19.2946 27.7146 18.9995 27.5007 18.9995 27.1244V26.196C18.9995 25.9198 19.169 25.6627 19.4324 25.5682C23.2599 24.1627 26.0017 20.4858 26.0017 16.1755C26.0017 11.8651 23.2599 8.18819 19.4324 6.78273C19.1941 6.69473 18.9995 6.40637 18.9995 6.15491V5.22655C18.9995 4.85019 19.2946 4.63073 19.6582 4.74928C24.4959 6.29346 28.0033 10.8296 28.0033 16.1818C27.9973 21.5213 24.4959 26.0513 19.6582 27.6009Z" fill="white"/>
</g>
<defs>
<clipPath id="clip0_4148_4994">
<rect width="32" height="32" fill="white"/>
</clipPath>
</defs>
</svg>
